<?xml version="1.0" encoding="utf-8" standalone="no"?>
<!DOCTYPE svg PUBLIC "-//W3C//DTD SVG 1.1//EN"
  "http://www.w3.org/Graphics/SVG/1.1/DTD/svg11.dtd">
<svg xmlns:xlink="http://www.w3.org/1999/xlink" width="432pt" height="576pt" viewBox="0 0 432 576" xmlns="http://www.w3.org/2000/svg" version="1.1">
 <metadata>
  <rdf:RDF xmlns:dc="http://purl.org/dc/elements/1.1/" xmlns:cc="http://creativecommons.org/ns#" xmlns:rdf="http://www.w3.org/1999/02/22-rdf-syntax-ns#">
   <cc:Work>
    <dc:type rdf:resource="http://purl.org/dc/dcmitype/StillImage"/>
    <dc:date>2026-02-24T18:11:59.826892</dc:date>
    <dc:format>image/svg+xml</dc:format>
    <dc:creator>
     <cc:Agent>
      <dc:title>Matplotlib v3.10.8, https://matplotlib.org/</dc:title>
     </cc:Agent>
    </dc:creator>
   </cc:Work>
  </rdf:RDF>
 </metadata>
 <defs>
  <style type="text/css">*{stroke-linejoin: round; stroke-linecap: butt}</style>
 </defs>
 <g id="figure_1">
  <g id="patch_1">
   <path d="M 0 576 
L 432 576 
L 432 0 
L 0 0 
z
" style="fill: #ffffff"/>
  </g>
  <g id="axes_1">
   <g id="patch_2">
    <path d="M 54 512.64 
L 388.8 512.64 
L 388.8 69.12 
L 54 69.12 
z
" style="fill: #ffffff"/>
   </g>
   <g id="matplotlib.axis_1">
    <g id="xtick_1">
     <g id="line2d_1">
      <path d="M 69.218182 512.64 
L 69.218182 69.12 
" clip-path="url(#p9fd441d00a)" style="fill: none; stroke-dasharray: 2.96,1.28; stroke-dashoffset: 0; stroke: #b0b0b0; stroke-opacity: 0.6; stroke-width: 0.8"/>
     </g>
     <g id="line2d_2">
      <defs>
       <path id="m8a84856a33" d="M 0 0 
L 0 3.5 
" style="stroke: #000000; stroke-width: 0.8"/>
      </defs>
      <g>
       <use xlink:href="#m8a84856a33" x="69.218182" y="512.64" style="stroke: #000000; stroke-width: 0.8"/>
      </g>
     </g>
     <g id="text_1">
      <!-- 0.0 -->
      <g transform="translate(61.266619 527.238438) scale(0.1 -0.1)">
       <defs>
        <path id="DejaVuSans-30" d="M 2034 4250 
Q 1547 4250 1301 3770 
Q 1056 3291 1056 2328 
Q 1056 1369 1301 889 
Q 1547 409 2034 409 
Q 2525 409 2770 889 
Q 3016 1369 3016 2328 
Q 3016 3291 2770 3770 
Q 2525 4250 2034 4250 
z
M 2034 4750 
Q 2819 4750 3233 4129 
Q 3647 3509 3647 2328 
Q 3647 1150 3233 529 
Q 2819 -91 2034 -91 
Q 1250 -91 836 529 
Q 422 1150 422 2328 
Q 422 3509 836 4129 
Q 1250 4750 2034 4750 
z
" transform="scale(0.015625)"/>
        <path id="DejaVuSans-2e" d="M 684 794 
L 1344 794 
L 1344 0 
L 684 0 
L 684 794 
z
" transform="scale(0.015625)"/>
       </defs>
       <use xlink:href="#DejaVuSans-30"/>
       <use xlink:href="#DejaVuSans-2e" transform="translate(63.623047 0)"/>
       <use xlink:href="#DejaVuSans-30" transform="translate(95.410156 0)"/>
      </g>
     </g>
    </g>
    <g id="xtick_2">
     <g id="line2d_3">
      <path d="M 120.665026 512.64 
L 120.665026 69.12 
" clip-path="url(#p9fd441d00a)" style="fill: none; stroke-dasharray: 2.96,1.28; stroke-dashoffset: 0; stroke: #b0b0b0; stroke-opacity: 0.6; stroke-width: 0.8"/>
     </g>
     <g id="line2d_4">
      <g>
       <use xlink:href="#m8a84856a33" x="120.665026" y="512.64" style="stroke: #000000; stroke-width: 0.8"/>
      </g>
     </g>
     <g id="text_2">
      <!-- 0.5 -->
      <g transform="translate(112.713464 527.238438) scale(0.1 -0.1)">
       <defs>
        <path id="DejaVuSans-35" d="M 691 4666 
L 3169 4666 
L 3169 4134 
L 1269 4134 
L 1269 2991 
Q 1406 3038 1543 3061 
Q 1681 3084 1819 3084 
Q 2600 3084 3056 2656 
Q 3513 2228 3513 1497 
Q 3513 744 3044 326 
Q 2575 -91 1722 -91 
Q 1428 -91 1123 -41 
Q 819 9 494 109 
L 494 744 
Q 775 591 1075 516 
Q 1375 441 1709 441 
Q 2250 441 2565 725 
Q 2881 1009 2881 1497 
Q 2881 1984 2565 2268 
Q 2250 2553 1709 2553 
Q 1456 2553 1204 2497 
Q 953 2441 691 2322 
L 691 4666 
z
" transform="scale(0.015625)"/>
       </defs>
       <use xlink:href="#DejaVuSans-30"/>
       <use xlink:href="#DejaVuSans-2e" transform="translate(63.623047 0)"/>
       <use xlink:href="#DejaVuSans-35" transform="translate(95.410156 0)"/>
      </g>
     </g>
    </g>
    <g id="xtick_3">
     <g id="line2d_5">
      <path d="M 172.111871 512.64 
L 172.111871 69.12 
" clip-path="url(#p9fd441d00a)" style="fill: none; stroke-dasharray: 2.96,1.28; stroke-dashoffset: 0; stroke: #b0b0b0; stroke-opacity: 0.6; stroke-width: 0.8"/>
     </g>
     <g id="line2d_6">
      <g>
       <use xlink:href="#m8a84856a33" x="172.111871" y="512.64" style="stroke: #000000; stroke-width: 0.8"/>
      </g>
     </g>
     <g id="text_3">
      <!-- 1.0 -->
      <g transform="translate(164.160308 527.238438) scale(0.1 -0.1)">
       <defs>
        <path id="DejaVuSans-31" d="M 794 531 
L 1825 531 
L 1825 4091 
L 703 3866 
L 703 4441 
L 1819 4666 
L 2450 4666 
L 2450 531 
L 3481 531 
L 3481 0 
L 794 0 
L 794 531 
z
" transform="scale(0.015625)"/>
       </defs>
       <use xlink:href="#DejaVuSans-31"/>
       <use xlink:href="#DejaVuSans-2e" transform="translate(63.623047 0)"/>
       <use xlink:href="#DejaVuSans-30" transform="translate(95.410156 0)"/>
      </g>
     </g>
    </g>
    <g id="xtick_4">
     <g id="line2d_7">
      <path d="M 223.558715 512.64 
L 223.558715 69.12 
" clip-path="url(#p9fd441d00a)" style="fill: none; stroke-dasharray: 2.96,1.28; stroke-dashoffset: 0; stroke: #b0b0b0; stroke-opacity: 0.6; stroke-width: 0.8"/>
     </g>
     <g id="line2d_8">
      <g>
       <use xlink:href="#m8a84856a33" x="223.558715" y="512.64" style="stroke: #000000; stroke-width: 0.8"/>
      </g>
     </g>
     <g id="text_4">
      <!-- 1.5 -->
      <g transform="translate(215.607153 527.238438) scale(0.1 -0.1)">
       <use xlink:href="#DejaVuSans-31"/>
       <use xlink:href="#DejaVuSans-2e" transform="translate(63.623047 0)"/>
       <use xlink:href="#DejaVuSans-35" transform="translate(95.410156 0)"/>
      </g>
     </g>
    </g>
    <g id="xtick_5">
     <g id="line2d_9">
      <path d="M 275.00556 512.64 
L 275.00556 69.12 
" clip-path="url(#p9fd441d00a)" style="fill: none; stroke-dasharray: 2.96,1.28; stroke-dashoffset: 0; stroke: #b0b0b0; stroke-opacity: 0.6; stroke-width: 0.8"/>
     </g>
     <g id="line2d_10">
      <g>
       <use xlink:href="#m8a84856a33" x="275.00556" y="512.64" style="stroke: #000000; stroke-width: 0.8"/>
      </g>
     </g>
     <g id="text_5">
      <!-- 2.0 -->
      <g transform="translate(267.053997 527.238438) scale(0.1 -0.1)">
       <defs>
        <path id="DejaVuSans-32" d="M 1228 531 
L 3431 531 
L 3431 0 
L 469 0 
L 469 531 
Q 828 903 1448 1529 
Q 2069 2156 2228 2338 
Q 2531 2678 2651 2914 
Q 2772 3150 2772 3378 
Q 2772 3750 2511 3984 
Q 2250 4219 1831 4219 
Q 1534 4219 1204 4116 
Q 875 4013 500 3803 
L 500 4441 
Q 881 4594 1212 4672 
Q 1544 4750 1819 4750 
Q 2544 4750 2975 4387 
Q 3406 4025 3406 3419 
Q 3406 3131 3298 2873 
Q 3191 2616 2906 2266 
Q 2828 2175 2409 1742 
Q 1991 1309 1228 531 
z
" transform="scale(0.015625)"/>
       </defs>
       <use xlink:href="#DejaVuSans-32"/>
       <use xlink:href="#DejaVuSans-2e" transform="translate(63.623047 0)"/>
       <use xlink:href="#DejaVuSans-30" transform="translate(95.410156 0)"/>
      </g>
     </g>
    </g>
    <g id="xtick_6">
     <g id="line2d_11">
      <path d="M 326.452404 512.64 
L 326.452404 69.12 
" clip-path="url(#p9fd441d00a)" style="fill: none; stroke-dasharray: 2.96,1.28; stroke-dashoffset: 0; stroke: #b0b0b0; stroke-opacity: 0.6; stroke-width: 0.8"/>
     </g>
     <g id="line2d_12">
      <g>
       <use xlink:href="#m8a84856a33" x="326.452404" y="512.64" style="stroke: #000000; stroke-width: 0.8"/>
      </g>
     </g>
     <g id="text_6">
      <!-- 2.5 -->
      <g transform="translate(318.500842 527.238438) scale(0.1 -0.1)">
       <use xlink:href="#DejaVuSans-32"/>
       <use xlink:href="#DejaVuSans-2e" transform="translate(63.623047 0)"/>
       <use xlink:href="#DejaVuSans-35" transform="translate(95.410156 0)"/>
      </g>
     </g>
    </g>
    <g id="xtick_7">
     <g id="line2d_13">
      <path d="M 377.899249 512.64 
L 377.899249 69.12 
" clip-path="url(#p9fd441d00a)" style="fill: none; stroke-dasharray: 2.96,1.28; stroke-dashoffset: 0; stroke: #b0b0b0; stroke-opacity: 0.6; stroke-width: 0.8"/>
     </g>
     <g id="line2d_14">
      <g>
       <use xlink:href="#m8a84856a33" x="377.899249" y="512.64" style="stroke: #000000; stroke-width: 0.8"/>
      </g>
     </g>
     <g id="text_7">
      <!-- 3.0 -->
      <g transform="translate(369.947686 527.238438) scale(0.1 -0.1)">
       <defs>
        <path id="DejaVuSans-33" d="M 2597 2516 
Q 3050 2419 3304 2112 
Q 3559 1806 3559 1356 
Q 3559 666 3084 287 
Q 2609 -91 1734 -91 
Q 1441 -91 1130 -33 
Q 819 25 488 141 
L 488 750 
Q 750 597 1062 519 
Q 1375 441 1716 441 
Q 2309 441 2620 675 
Q 2931 909 2931 1356 
Q 2931 1769 2642 2001 
Q 2353 2234 1838 2234 
L 1294 2234 
L 1294 2753 
L 1863 2753 
Q 2328 2753 2575 2939 
Q 2822 3125 2822 3475 
Q 2822 3834 2567 4026 
Q 2313 4219 1838 4219 
Q 1578 4219 1281 4162 
Q 984 4106 628 3988 
L 628 4550 
Q 988 4650 1302 4700 
Q 1616 4750 1894 4750 
Q 2613 4750 3031 4423 
Q 3450 4097 3450 3541 
Q 3450 3153 3228 2886 
Q 3006 2619 2597 2516 
z
" transform="scale(0.015625)"/>
       </defs>
       <use xlink:href="#DejaVuSans-33"/>
       <use xlink:href="#DejaVuSans-2e" transform="translate(63.623047 0)"/>
       <use xlink:href="#DejaVuSans-30" transform="translate(95.410156 0)"/>
      </g>
     </g>
    </g>
    <g id="text_8">
     <!-- Velocity (u) -->
     <g transform="translate(187.47 542.43625) scale(0.12 -0.12)">
      <defs>
       <path id="DejaVuSans-56" d="M 1831 0 
L 50 4666 
L 709 4666 
L 2188 738 
L 3669 4666 
L 4325 4666 
L 2547 0 
L 1831 0 
z
" transform="scale(0.015625)"/>
       <path id="DejaVuSans-65" d="M 3597 1894 
L 3597 1613 
L 953 1613 
Q 991 1019 1311 708 
Q 1631 397 2203 397 
Q 2534 397 2845 478 
Q 3156 559 3463 722 
L 3463 178 
Q 3153 47 2828 -22 
Q 2503 -91 2169 -91 
Q 1331 -91 842 396 
Q 353 884 353 1716 
Q 353 2575 817 3079 
Q 1281 3584 2069 3584 
Q 2775 3584 3186 3129 
Q 3597 2675 3597 1894 
z
M 3022 2063 
Q 3016 2534 2758 2815 
Q 2500 3097 2075 3097 
Q 1594 3097 1305 2825 
Q 1016 2553 972 2059 
L 3022 2063 
z
" transform="scale(0.015625)"/>
       <path id="DejaVuSans-6c" d="M 603 4863 
L 1178 4863 
L 1178 0 
L 603 0 
L 603 4863 
z
" transform="scale(0.015625)"/>
       <path id="DejaVuSans-6f" d="M 1959 3097 
Q 1497 3097 1228 2736 
Q 959 2375 959 1747 
Q 959 1119 1226 758 
Q 1494 397 1959 397 
Q 2419 397 2687 759 
Q 2956 1122 2956 1747 
Q 2956 2369 2687 2733 
Q 2419 3097 1959 3097 
z
M 1959 3584 
Q 2709 3584 3137 3096 
Q 3566 2609 3566 1747 
Q 3566 888 3137 398 
Q 2709 -91 1959 -91 
Q 1206 -91 779 398 
Q 353 888 353 1747 
Q 353 2609 779 3096 
Q 1206 3584 1959 3584 
z
" transform="scale(0.015625)"/>
       <path id="DejaVuSans-63" d="M 3122 3366 
L 3122 2828 
Q 2878 2963 2633 3030 
Q 2388 3097 2138 3097 
Q 1578 3097 1268 2742 
Q 959 2388 959 1747 
Q 959 1106 1268 751 
Q 1578 397 2138 397 
Q 2388 397 2633 464 
Q 2878 531 3122 666 
L 3122 134 
Q 2881 22 2623 -34 
Q 2366 -91 2075 -91 
Q 1284 -91 818 406 
Q 353 903 353 1747 
Q 353 2603 823 3093 
Q 1294 3584 2113 3584 
Q 2378 3584 2631 3529 
Q 2884 3475 3122 3366 
z
" transform="scale(0.015625)"/>
       <path id="DejaVuSans-69" d="M 603 3500 
L 1178 3500 
L 1178 0 
L 603 0 
L 603 3500 
z
M 603 4863 
L 1178 4863 
L 1178 4134 
L 603 4134 
L 603 4863 
z
" transform="scale(0.015625)"/>
       <path id="DejaVuSans-74" d="M 1172 4494 
L 1172 3500 
L 2356 3500 
L 2356 3053 
L 1172 3053 
L 1172 1153 
Q 1172 725 1289 603 
Q 1406 481 1766 481 
L 2356 481 
L 2356 0 
L 1766 0 
Q 1100 0 847 248 
Q 594 497 594 1153 
L 594 3053 
L 172 3053 
L 172 3500 
L 594 3500 
L 594 4494 
L 1172 4494 
z
" transform="scale(0.015625)"/>
       <path id="DejaVuSans-79" d="M 2059 -325 
Q 1816 -950 1584 -1140 
Q 1353 -1331 966 -1331 
L 506 -1331 
L 506 -850 
L 844 -850 
Q 1081 -850 1212 -737 
Q 1344 -625 1503 -206 
L 1606 56 
L 191 3500 
L 800 3500 
L 1894 763 
L 2988 3500 
L 3597 3500 
L 2059 -325 
z
" transform="scale(0.015625)"/>
       <path id="DejaVuSans-20" transform="scale(0.015625)"/>
       <path id="DejaVuSans-28" d="M 1984 4856 
Q 1566 4138 1362 3434 
Q 1159 2731 1159 2009 
Q 1159 1288 1364 580 
Q 1569 -128 1984 -844 
L 1484 -844 
Q 1016 -109 783 600 
Q 550 1309 550 2009 
Q 550 2706 781 3412 
Q 1013 4119 1484 4856 
L 1984 4856 
z
" transform="scale(0.015625)"/>
       <path id="DejaVuSans-75" d="M 544 1381 
L 544 3500 
L 1119 3500 
L 1119 1403 
Q 1119 906 1312 657 
Q 1506 409 1894 409 
Q 2359 409 2629 706 
Q 2900 1003 2900 1516 
L 2900 3500 
L 3475 3500 
L 3475 0 
L 2900 0 
L 2900 538 
Q 2691 219 2414 64 
Q 2138 -91 1772 -91 
Q 1169 -91 856 284 
Q 544 659 544 1381 
z
M 1991 3584 
L 1991 3584 
z
" transform="scale(0.015625)"/>
       <path id="DejaVuSans-29" d="M 513 4856 
L 1013 4856 
Q 1481 4119 1714 3412 
Q 1947 2706 1947 2009 
Q 1947 1309 1714 600 
Q 1481 -109 1013 -844 
L 513 -844 
Q 928 -128 1133 580 
Q 1338 1288 1338 2009 
Q 1338 2731 1133 3434 
Q 928 4138 513 4856 
z
" transform="scale(0.015625)"/>
      </defs>
      <use xlink:href="#DejaVuSans-56"/>
      <use xlink:href="#DejaVuSans-65" transform="translate(60.658203 0)"/>
      <use xlink:href="#DejaVuSans-6c" transform="translate(122.181641 0)"/>
      <use xlink:href="#DejaVuSans-6f" transform="translate(149.964844 0)"/>
      <use xlink:href="#DejaVuSans-63" transform="translate(211.146484 0)"/>
      <use xlink:href="#DejaVuSans-69" transform="translate(266.126953 0)"/>
      <use xlink:href="#DejaVuSans-74" transform="translate(293.910156 0)"/>
      <use xlink:href="#DejaVuSans-79" transform="translate(333.119141 0)"/>
      <use xlink:href="#DejaVuSans-20" transform="translate(392.298828 0)"/>
      <use xlink:href="#DejaVuSans-28" transform="translate(424.085938 0)"/>
      <use xlink:href="#DejaVuSans-75" transform="translate(463.099609 0)"/>
      <use xlink:href="#DejaVuSans-29" transform="translate(526.478516 0)"/>
     </g>
    </g>
   </g>
   <g id="matplotlib.axis_2">
    <g id="ytick_1">
     <g id="line2d_15">
      <path d="M 54 89.28 
L 388.8 89.28 
" clip-path="url(#p9fd441d00a)" style="fill: none; stroke-dasharray: 2.96,1.28; stroke-dashoffset: 0; stroke: #b0b0b0; stroke-opacity: 0.6; stroke-width: 0.8"/>
     </g>
     <g id="line2d_16">
      <defs>
       <path id="m44eeb1a9a1" d="M 0 0 
L -3.5 0 
" style="stroke: #000000; stroke-width: 0.8"/>
      </defs>
      <g>
       <use xlink:href="#m44eeb1a9a1" x="54" y="89.28" style="stroke: #000000; stroke-width: 0.8"/>
      </g>
     </g>
     <g id="text_9">
      <!-- 0 -->
      <g transform="translate(40.6375 93.079219) scale(0.1 -0.1)">
       <use xlink:href="#DejaVuSans-30"/>
      </g>
     </g>
    </g>
    <g id="ytick_2">
     <g id="line2d_17">
      <path d="M 54 139.68 
L 388.8 139.68 
" clip-path="url(#p9fd441d00a)" style="fill: none; stroke-dasharray: 2.96,1.28; stroke-dashoffset: 0; stroke: #b0b0b0; stroke-opacity: 0.6; stroke-width: 0.8"/>
     </g>
     <g id="line2d_18">
      <g>
       <use xlink:href="#m44eeb1a9a1" x="54" y="139.68" style="stroke: #000000; stroke-width: 0.8"/>
      </g>
     </g>
     <g id="text_10">
      <!-- 25 -->
      <g transform="translate(34.275 143.479219) scale(0.1 -0.1)">
       <use xlink:href="#DejaVuSans-32"/>
       <use xlink:href="#DejaVuSans-35" transform="translate(63.623047 0)"/>
      </g>
     </g>
    </g>
    <g id="ytick_3">
     <g id="line2d_19">
      <path d="M 54 190.08 
L 388.8 190.08 
" clip-path="url(#p9fd441d00a)" style="fill: none; stroke-dasharray: 2.96,1.28; stroke-dashoffset: 0; stroke: #b0b0b0; stroke-opacity: 0.6; stroke-width: 0.8"/>
     </g>
     <g id="line2d_20">
      <g>
       <use xlink:href="#m44eeb1a9a1" x="54" y="190.08" style="stroke: #000000; stroke-width: 0.8"/>
      </g>
     </g>
     <g id="text_11">
      <!-- 50 -->
      <g transform="translate(34.275 193.879219) scale(0.1 -0.1)">
       <use xlink:href="#DejaVuSans-35"/>
       <use xlink:href="#DejaVuSans-30" transform="translate(63.623047 0)"/>
      </g>
     </g>
    </g>
    <g id="ytick_4">
     <g id="line2d_21">
      <path d="M 54 240.48 
L 388.8 240.48 
" clip-path="url(#p9fd441d00a)" style="fill: none; stroke-dasharray: 2.96,1.28; stroke-dashoffset: 0; stroke: #b0b0b0; stroke-opacity: 0.6; stroke-width: 0.8"/>
     </g>
     <g id="line2d_22">
      <g>
       <use xlink:href="#m44eeb1a9a1" x="54" y="240.48" style="stroke: #000000; stroke-width: 0.8"/>
      </g>
     </g>
     <g id="text_12">
      <!-- 75 -->
      <g transform="translate(34.275 244.279219) scale(0.1 -0.1)">
       <defs>
        <path id="DejaVuSans-37" d="M 525 4666 
L 3525 4666 
L 3525 4397 
L 1831 0 
L 1172 0 
L 2766 4134 
L 525 4134 
L 525 4666 
z
" transform="scale(0.015625)"/>
       </defs>
       <use xlink:href="#DejaVuSans-37"/>
       <use xlink:href="#DejaVuSans-35" transform="translate(63.623047 0)"/>
      </g>
     </g>
    </g>
    <g id="ytick_5">
     <g id="line2d_23">
      <path d="M 54 290.88 
L 388.8 290.88 
" clip-path="url(#p9fd441d00a)" style="fill: none; stroke-dasharray: 2.96,1.28; stroke-dashoffset: 0; stroke: #b0b0b0; stroke-opacity: 0.6; stroke-width: 0.8"/>
     </g>
     <g id="line2d_24">
      <g>
       <use xlink:href="#m44eeb1a9a1" x="54" y="290.88" style="stroke: #000000; stroke-width: 0.8"/>
      </g>
     </g>
     <g id="text_13">
      <!-- 100 -->
      <g transform="translate(27.9125 294.679219) scale(0.1 -0.1)">
       <use xlink:href="#DejaVuSans-31"/>
       <use xlink:href="#DejaVuSans-30" transform="translate(63.623047 0)"/>
       <use xlink:href="#DejaVuSans-30" transform="translate(127.246094 0)"/>
      </g>
     </g>
    </g>
    <g id="ytick_6">
     <g id="line2d_25">
      <path d="M 54 341.28 
L 388.8 341.28 
" clip-path="url(#p9fd441d00a)" style="fill: none; stroke-dasharray: 2.96,1.28; stroke-dashoffset: 0; stroke: #b0b0b0; stroke-opacity: 0.6; stroke-width: 0.8"/>
     </g>
     <g id="line2d_26">
      <g>
       <use xlink:href="#m44eeb1a9a1" x="54" y="341.28" style="stroke: #000000; stroke-width: 0.8"/>
      </g>
     </g>
     <g id="text_14">
      <!-- 125 -->
      <g transform="translate(27.9125 345.079219) scale(0.1 -0.1)">
       <use xlink:href="#DejaVuSans-31"/>
       <use xlink:href="#DejaVuSans-32" transform="translate(63.623047 0)"/>
       <use xlink:href="#DejaVuSans-35" transform="translate(127.246094 0)"/>
      </g>
     </g>
    </g>
    <g id="ytick_7">
     <g id="line2d_27">
      <path d="M 54 391.68 
L 388.8 391.68 
" clip-path="url(#p9fd441d00a)" style="fill: none; stroke-dasharray: 2.96,1.28; stroke-dashoffset: 0; stroke: #b0b0b0; stroke-opacity: 0.6; stroke-width: 0.8"/>
     </g>
     <g id="line2d_28">
      <g>
       <use xlink:href="#m44eeb1a9a1" x="54" y="391.68" style="stroke: #000000; stroke-width: 0.8"/>
      </g>
     </g>
     <g id="text_15">
      <!-- 150 -->
      <g transform="translate(27.9125 395.479219) scale(0.1 -0.1)">
       <use xlink:href="#DejaVuSans-31"/>
       <use xlink:href="#DejaVuSans-35" transform="translate(63.623047 0)"/>
       <use xlink:href="#DejaVuSans-30" transform="translate(127.246094 0)"/>
      </g>
     </g>
    </g>
    <g id="ytick_8">
     <g id="line2d_29">
      <path d="M 54 442.08 
L 388.8 442.08 
" clip-path="url(#p9fd441d00a)" style="fill: none; stroke-dasharray: 2.96,1.28; stroke-dashoffset: 0; stroke: #b0b0b0; stroke-opacity: 0.6; stroke-width: 0.8"/>
     </g>
     <g id="line2d_30">
      <g>
       <use xlink:href="#m44eeb1a9a1" x="54" y="442.08" style="stroke: #000000; stroke-width: 0.8"/>
      </g>
     </g>
     <g id="text_16">
      <!-- 175 -->
      <g transform="translate(27.9125 445.879219) scale(0.1 -0.1)">
       <use xlink:href="#DejaVuSans-31"/>
       <use xlink:href="#DejaVuSans-37" transform="translate(63.623047 0)"/>
       <use xlink:href="#DejaVuSans-35" transform="translate(127.246094 0)"/>
      </g>
     </g>
    </g>
    <g id="ytick_9">
     <g id="line2d_31">
      <path d="M 54 492.48 
L 388.8 492.48 
" clip-path="url(#p9fd441d00a)" style="fill: none; stroke-dasharray: 2.96,1.28; stroke-dashoffset: 0; stroke: #b0b0b0; stroke-opacity: 0.6; stroke-width: 0.8"/>
     </g>
     <g id="line2d_32">
      <g>
       <use xlink:href="#m44eeb1a9a1" x="54" y="492.48" style="stroke: #000000; stroke-width: 0.8"/>
      </g>
     </g>
     <g id="text_17">
      <!-- 200 -->
      <g transform="translate(27.9125 496.279219) scale(0.1 -0.1)">
       <use xlink:href="#DejaVuSans-32"/>
       <use xlink:href="#DejaVuSans-30" transform="translate(63.623047 0)"/>
       <use xlink:href="#DejaVuSans-30" transform="translate(127.246094 0)"/>
      </g>
     </g>
    </g>
    <g id="text_18">
     <!-- Depth (z) -->
     <g transform="translate(21.416875 318.893438) rotate(-90) scale(0.12 -0.12)">
      <defs>
       <path id="DejaVuSans-44" d="M 1259 4147 
L 1259 519 
L 2022 519 
Q 2988 519 3436 956 
Q 3884 1394 3884 2338 
Q 3884 3275 3436 3711 
Q 2988 4147 2022 4147 
L 1259 4147 
z
M 628 4666 
L 1925 4666 
Q 3281 4666 3915 4102 
Q 4550 3538 4550 2338 
Q 4550 1131 3912 565 
Q 3275 0 1925 0 
L 628 0 
L 628 4666 
z
" transform="scale(0.015625)"/>
       <path id="DejaVuSans-70" d="M 1159 525 
L 1159 -1331 
L 581 -1331 
L 581 3500 
L 1159 3500 
L 1159 2969 
Q 1341 3281 1617 3432 
Q 1894 3584 2278 3584 
Q 2916 3584 3314 3078 
Q 3713 2572 3713 1747 
Q 3713 922 3314 415 
Q 2916 -91 2278 -91 
Q 1894 -91 1617 61 
Q 1341 213 1159 525 
z
M 3116 1747 
Q 3116 2381 2855 2742 
Q 2594 3103 2138 3103 
Q 1681 3103 1420 2742 
Q 1159 2381 1159 1747 
Q 1159 1113 1420 752 
Q 1681 391 2138 391 
Q 2594 391 2855 752 
Q 3116 1113 3116 1747 
z
" transform="scale(0.015625)"/>
       <path id="DejaVuSans-68" d="M 3513 2113 
L 3513 0 
L 2938 0 
L 2938 2094 
Q 2938 2591 2744 2837 
Q 2550 3084 2163 3084 
Q 1697 3084 1428 2787 
Q 1159 2491 1159 1978 
L 1159 0 
L 581 0 
L 581 4863 
L 1159 4863 
L 1159 2956 
Q 1366 3272 1645 3428 
Q 1925 3584 2291 3584 
Q 2894 3584 3203 3211 
Q 3513 2838 3513 2113 
z
" transform="scale(0.015625)"/>
       <path id="DejaVuSans-7a" d="M 353 3500 
L 3084 3500 
L 3084 2975 
L 922 459 
L 3084 459 
L 3084 0 
L 275 0 
L 275 525 
L 2438 3041 
L 353 3041 
L 353 3500 
z
" transform="scale(0.015625)"/>
      </defs>
      <use xlink:href="#DejaVuSans-44"/>
      <use xlink:href="#DejaVuSans-65" transform="translate(77.001953 0)"/>
      <use xlink:href="#DejaVuSans-70" transform="translate(138.525391 0)"/>
      <use xlink:href="#DejaVuSans-74" transform="translate(202.001953 0)"/>
      <use xlink:href="#DejaVuSans-68" transform="translate(241.210938 0)"/>
      <use xlink:href="#DejaVuSans-20" transform="translate(304.589844 0)"/>
      <use xlink:href="#DejaVuSans-28" transform="translate(336.376953 0)"/>
      <use xlink:href="#DejaVuSans-7a" transform="translate(375.390625 0)"/>
      <use xlink:href="#DejaVuSans-29" transform="translate(427.880859 0)"/>
     </g>
    </g>
   </g>
   <g id="line2d_33">
    <path d="M 373.581818 89.28 
L 373.581815 93.352727 
L 373.581767 97.425455 
L 373.581562 101.498182 
L 373.581007 105.570909 
L 373.579838 109.643636 
L 373.577712 113.716364 
L 373.574211 117.789091 
L 373.56884 121.861818 
L 373.56103 125.934545 
L 373.550133 130.007273 
L 373.535428 134.08 
L 373.516116 138.152727 
L 373.491323 142.225455 
L 373.460098 146.298182 
L 373.421414 150.370909 
L 373.374168 154.443636 
L 373.317183 158.516364 
L 373.249203 162.589091 
L 373.168898 166.661818 
L 373.07486 170.734545 
L 372.965608 174.807273 
L 372.839581 178.88 
L 372.695145 182.952727 
L 372.53059 187.025455 
L 372.344128 191.098182 
L 372.133895 195.170909 
L 371.897954 199.243636 
L 371.634288 203.316364 
L 371.340807 207.389091 
L 371.015343 211.461818 
L 370.655654 215.534545 
L 370.259418 219.607273 
L 369.824242 223.68 
L 369.347654 227.752727 
L 368.827107 231.825455 
L 368.259976 235.898182 
L 367.643563 239.970909 
L 366.975091 244.043636 
L 366.251709 248.116364 
L 365.47049 252.189091 
L 364.62843 256.261818 
L 363.722449 260.334545 
L 362.74939 264.407273 
L 361.706023 268.48 
L 360.589039 272.552727 
L 359.395055 276.625455 
L 358.12061 280.698182 
L 356.762169 284.770909 
L 355.316119 288.843636 
L 353.778772 292.916364 
L 352.146364 296.989091 
L 350.415055 301.061818 
L 348.580928 305.134545 
L 346.639992 309.207273 
L 344.588178 313.28 
L 342.421341 317.352727 
L 340.135262 321.425455 
L 337.725643 325.498182 
L 335.188112 329.570909 
L 332.518221 333.643636 
L 329.711445 337.716364 
L 326.763184 341.789091 
L 323.66876 345.861818 
L 320.423421 349.934545 
L 317.022338 354.007273 
L 313.460606 358.08 
L 309.733245 362.152727 
L 305.835198 366.225455 
L 301.761331 370.298182 
L 297.506435 374.370909 
L 293.065227 378.443636 
L 288.432344 382.516364 
L 283.602349 386.589091 
L 278.56973 390.661818 
L 273.328896 394.734545 
L 267.874184 398.807273 
L 262.19985 402.88 
L 256.300079 406.952727 
L 250.168977 411.025455 
L 243.800574 415.098182 
L 237.188825 419.170909 
L 230.327608 423.243636 
L 223.210726 427.316364 
L 215.831905 431.389091 
L 208.184795 435.461818 
L 200.262971 439.534545 
L 192.059932 443.607273 
L 183.569098 447.68 
L 174.783818 451.752727 
L 165.697359 455.825455 
L 156.302918 459.898182 
L 146.593611 463.970909 
L 136.562481 468.043636 
L 126.202493 472.116364 
L 115.506538 476.189091 
L 104.46743 480.261818 
L 93.077906 484.334545 
L 81.330628 488.407273 
L 69.218182 492.48 
" clip-path="url(#p9fd441d00a)" style="fill: none; stroke: #4169e1; stroke-width: 2; stroke-linecap: square"/>
   </g>
   <g id="patch_3">
    <path d="M 54 512.64 
L 54 69.12 
" style="fill: none; stroke: #000000; stroke-width: 0.8; stroke-linejoin: miter; stroke-linecap: square"/>
   </g>
   <g id="patch_4">
    <path d="M 388.8 512.64 
L 388.8 69.12 
" style="fill: none; stroke: #000000; stroke-width: 0.8; stroke-linejoin: miter; stroke-linecap: square"/>
   </g>
   <g id="patch_5">
    <path d="M 54 512.64 
L 388.8 512.64 
" style="fill: none; stroke: #000000; stroke-width: 0.8; stroke-linejoin: miter; stroke-linecap: square"/>
   </g>
   <g id="patch_6">
    <path d="M 54 69.12 
L 388.8 69.12 
" style="fill: none; stroke: #000000; stroke-width: 0.8; stroke-linejoin: miter; stroke-linecap: square"/>
   </g>
   <g id="text_19">
    <!-- Nye Velocity Profile -->
    <g transform="translate(154.039219 54.12) scale(0.14 -0.14)">
     <defs>
      <path id="DejaVuSans-4e" d="M 628 4666 
L 1478 4666 
L 3547 763 
L 3547 4666 
L 4159 4666 
L 4159 0 
L 3309 0 
L 1241 3903 
L 1241 0 
L 628 0 
L 628 4666 
z
" transform="scale(0.015625)"/>
      <path id="DejaVuSans-50" d="M 1259 4147 
L 1259 2394 
L 2053 2394 
Q 2494 2394 2734 2622 
Q 2975 2850 2975 3272 
Q 2975 3691 2734 3919 
Q 2494 4147 2053 4147 
L 1259 4147 
z
M 628 4666 
L 2053 4666 
Q 2838 4666 3239 4311 
Q 3641 3956 3641 3272 
Q 3641 2581 3239 2228 
Q 2838 1875 2053 1875 
L 1259 1875 
L 1259 0 
L 628 0 
L 628 4666 
z
" transform="scale(0.015625)"/>
      <path id="DejaVuSans-72" d="M 2631 2963 
Q 2534 3019 2420 3045 
Q 2306 3072 2169 3072 
Q 1681 3072 1420 2755 
Q 1159 2438 1159 1844 
L 1159 0 
L 581 0 
L 581 3500 
L 1159 3500 
L 1159 2956 
Q 1341 3275 1631 3429 
Q 1922 3584 2338 3584 
Q 2397 3584 2469 3576 
Q 2541 3569 2628 3553 
L 2631 2963 
z
" transform="scale(0.015625)"/>
      <path id="DejaVuSans-66" d="M 2375 4863 
L 2375 4384 
L 1825 4384 
Q 1516 4384 1395 4259 
Q 1275 4134 1275 3809 
L 1275 3500 
L 2222 3500 
L 2222 3053 
L 1275 3053 
L 1275 0 
L 697 0 
L 697 3053 
L 147 3053 
L 147 3500 
L 697 3500 
L 697 3744 
Q 697 4328 969 4595 
Q 1241 4863 1831 4863 
L 2375 4863 
z
" transform="scale(0.015625)"/>
     </defs>
     <use xlink:href="#DejaVuSans-4e"/>
     <use xlink:href="#DejaVuSans-79" transform="translate(74.804688 0)"/>
     <use xlink:href="#DejaVuSans-65" transform="translate(133.984375 0)"/>
     <use xlink:href="#DejaVuSans-20" transform="translate(195.507812 0)"/>
     <use xlink:href="#DejaVuSans-56" transform="translate(227.294922 0)"/>
     <use xlink:href="#DejaVuSans-65" transform="translate(287.953125 0)"/>
     <use xlink:href="#DejaVuSans-6c" transform="translate(349.476562 0)"/>
     <use xlink:href="#DejaVuSans-6f" transform="translate(377.259766 0)"/>
     <use xlink:href="#DejaVuSans-63" transform="translate(438.441406 0)"/>
     <use xlink:href="#DejaVuSans-69" transform="translate(493.421875 0)"/>
     <use xlink:href="#DejaVuSans-74" transform="translate(521.205078 0)"/>
     <use xlink:href="#DejaVuSans-79" transform="translate(560.414062 0)"/>
     <use xlink:href="#DejaVuSans-20" transform="translate(619.59375 0)"/>
     <use xlink:href="#DejaVuSans-50" transform="translate(651.380859 0)"/>
     <use xlink:href="#DejaVuSans-72" transform="translate(709.933594 0)"/>
     <use xlink:href="#DejaVuSans-6f" transform="translate(748.796875 0)"/>
     <use xlink:href="#DejaVuSans-66" transform="translate(809.978516 0)"/>
     <use xlink:href="#DejaVuSans-69" transform="translate(845.183594 0)"/>
     <use xlink:href="#DejaVuSans-6c" transform="translate(872.966797 0)"/>
     <use xlink:href="#DejaVuSans-65" transform="translate(900.75 0)"/>
    </g>
   </g>
   <g id="legend_1">
    <g id="patch_7">
     <path d="M 61 91.798125 
L 177.295313 91.798125 
Q 179.295313 91.798125 179.295313 89.798125 
L 179.295313 76.12 
Q 179.295313 74.12 177.295313 74.12 
L 61 74.12 
Q 59 74.12 59 76.12 
L 59 89.798125 
Q 59 91.798125 61 91.798125 
z
" style="fill: #ffffff; opacity: 0.8; stroke: #cccccc; stroke-linejoin: miter"/>
    </g>
    <g id="line2d_34">
     <path d="M 63 82.218438 
L 73 82.218438 
L 83 82.218438 
" style="fill: none; stroke: #4169e1; stroke-width: 2; stroke-linecap: square"/>
    </g>
    <g id="text_20">
     <!-- Nye Curve (n=3) -->
     <g transform="translate(91 85.718438) scale(0.1 -0.1)">
      <defs>
       <path id="DejaVuSans-43" d="M 4122 4306 
L 4122 3641 
Q 3803 3938 3442 4084 
Q 3081 4231 2675 4231 
Q 1875 4231 1450 3742 
Q 1025 3253 1025 2328 
Q 1025 1406 1450 917 
Q 1875 428 2675 428 
Q 3081 428 3442 575 
Q 3803 722 4122 1019 
L 4122 359 
Q 3791 134 3420 21 
Q 3050 -91 2638 -91 
Q 1578 -91 968 557 
Q 359 1206 359 2328 
Q 359 3453 968 4101 
Q 1578 4750 2638 4750 
Q 3056 4750 3426 4639 
Q 3797 4528 4122 4306 
z
" transform="scale(0.015625)"/>
       <path id="DejaVuSans-76" d="M 191 3500 
L 800 3500 
L 1894 563 
L 2988 3500 
L 3597 3500 
L 2284 0 
L 1503 0 
L 191 3500 
z
" transform="scale(0.015625)"/>
       <path id="DejaVuSans-6e" d="M 3513 2113 
L 3513 0 
L 2938 0 
L 2938 2094 
Q 2938 2591 2744 2837 
Q 2550 3084 2163 3084 
Q 1697 3084 1428 2787 
Q 1159 2491 1159 1978 
L 1159 0 
L 581 0 
L 581 3500 
L 1159 3500 
L 1159 2956 
Q 1366 3272 1645 3428 
Q 1925 3584 2291 3584 
Q 2894 3584 3203 3211 
Q 3513 2838 3513 2113 
z
" transform="scale(0.015625)"/>
       <path id="DejaVuSans-3d" d="M 678 2906 
L 4684 2906 
L 4684 2381 
L 678 2381 
L 678 2906 
z
M 678 1631 
L 4684 1631 
L 4684 1100 
L 678 1100 
L 678 1631 
z
" transform="scale(0.015625)"/>
      </defs>
      <use xlink:href="#DejaVuSans-4e"/>
      <use xlink:href="#DejaVuSans-79" transform="translate(74.804688 0)"/>
      <use xlink:href="#DejaVuSans-65" transform="translate(133.984375 0)"/>
      <use xlink:href="#DejaVuSans-20" transform="translate(195.507812 0)"/>
      <use xlink:href="#DejaVuSans-43" transform="translate(227.294922 0)"/>
      <use xlink:href="#DejaVuSans-75" transform="translate(297.119141 0)"/>
      <use xlink:href="#DejaVuSans-72" transform="translate(360.498047 0)"/>
      <use xlink:href="#DejaVuSans-76" transform="translate(401.611328 0)"/>
      <use xlink:href="#DejaVuSans-65" transform="translate(460.791016 0)"/>
      <use xlink:href="#DejaVuSans-20" transform="translate(522.314453 0)"/>
      <use xlink:href="#DejaVuSans-28" transform="translate(554.101562 0)"/>
      <use xlink:href="#DejaVuSans-6e" transform="translate(593.115234 0)"/>
      <use xlink:href="#DejaVuSans-3d" transform="translate(656.494141 0)"/>
      <use xlink:href="#DejaVuSans-33" transform="translate(740.283203 0)"/>
      <use xlink:href="#DejaVuSans-29" transform="translate(803.90625 0)"/>
     </g>
    </g>
   </g>
  </g>
 </g>
 <defs>
  <clipPath id="p9fd441d00a">
   <rect x="54" y="69.12" width="334.8" height="443.52"/>
  </clipPath>
 </defs>
</svg>
